{"title":"The Strain S02 720p BluRay HEVC 2CH x265","uid":15687582,"size":4608374379,"categoryP":"video","categoryS":"hd___tv_shows","magnet":"?xt=urn:btih:cb2fbd1056403a747f85be2c3e8ba9792d23c52b&amp;dn=The+Strain+S02+720p+BluRay+HEVC+2CH+x265&amp;tr=udp%3A%2F%2Ftracker.leechers-paradise.org%3A6969&amp;tr=udp%3A%2F%2Fzer0day.ch%3A1337&amp;tr=udp%3A%2F%2Fopen.demonii.com%3A1337&amp;tr=udp%3A%2F%2Ftracker.coppersurfer.tk%3A6969&amp;tr=udp%3A%2F%2Fexodus.desync.com%3A6969","seeders":4,"leechers":4,"uploader":"nayhtut","files":26,"time":1472359786,"description":"[Screenshots]\r\n \nhttps://s13.postimg.org/nhn52596f/The_Strain_S02_E13_720p_Blu_Ray_HEVC_2_CH_x265_001.jpg \nhttps://s13.postimg.org/twm5ytfw7/The_Strain_S02_E12_720p_Blu_Ray_HEVC_2_CH_x265_001.jpg \nhttps://s13.postimg.org/nk70ozctz/The_Strain_S02_E11_720p_Blu_Ray_HEVC_2_CH_x265_008.jpg \nhttps://s13.postimg.org/cyn5cz6if/The_Strain_S02_E08_720p_Blu_Ray_HEVC_2_CH_x265_005.jpg \nhttps://s13.postimg.org/cn5p07q2f/The_Strain_S02_E07_720p_Blu_Ray_HEVC_2_CH_x265_007.jpg \nhttps://s13.postimg.org/uehbeo5h3/The_Strain_S02_E06_720p_Blu_Ray_HEVC_2_CH_x265_001.jpg \nhttps://s13.postimg.org/kig8f0zp3/The_Strain_S02_E05_720p_Blu_Ray_HEVC_2_CH_x265_003.jpg \nhttps://s13.postimg.org/moaj9j35j/The_Strain_S02_E04_720p_Blu_Ray_HEVC_2_CH_x265_005.jpg \nhttps://s13.postimg.org/f9psuw6nr/The_Strain_S02_E03_720p_Blu_Ray_HEVC_2_CH_x265_006.jpg \nhttps://s13.postimg.org/v98geg2pj/The_Strain_S02_E02_720p_Blu_Ray_HEVC_2_CH_x265_004.jpg\r\n\r\n\r\n__--__--__--__--__--__--__--__--__--__--__--__--__--__--__--__--__--__--__--__--__--__--__--__--__--__--\r\n\r\nSource:  The Strain S02 720p BluRay x264-MIXED  (Size: 29 GB)\r\n\r\n\r\nContains:  The Strain Season Two - Episode 01 to 13\r\n\r\n\r\nFormat                                   : Matroska\r\nFormat version                           : Version 4 / Version 2\r\nFile size                                : 4.29 GiB\r\nDuration                                 : Various\r\nOverall bit rate                         : 1 023 Kbps\r\nWriting application                      : Lavf57.25.100\r\nWriting library                          : Lavf57.25.100\r\n\r\nVideo\r\n\r\nID                                       : 1\r\nFormat                                   : V_MPEGH/ISO/HEVC\r\nCodec ID                                 : V_MPEGH/ISO/HEVC\r\nDuration                                 : 58mn 14s\r\nBit rate                                 : 811 Kbps\r\nWidth                                    : 1 280 pixels\r\nHeight                                   : 720 pixels\r\nDisplay aspect ratio                     : 16:9\r\nFrame rate                               : 25.000 fps\r\nBits/(Pixel*Frame)                       : 0.035\r\nStream size                              : 338 MiB (79%)\r\nWriting library                          : Lavc57.48.101 libx265\r\nLanguage                                 : English\r\nDefault                                  : Yes\r\nForced                                   : No\r\nDURATION                                 : 00:58:14.491000000\r\nNUMBER_OF_FRAMES                         : 83783\r\nNUMBER_OF_BYTES                          : 2179065300\r\n_STATISTICS_WRITING_APP                  : mkvmerge v8.3.0 ('Over the Horizon') 64bit\r\n_STATISTICS_WRITING_DATE_UTC             : 2016-08-14 00:35:59\r\n_STATISTICS_TAGS                         : BPS DURATION NUMBER_OF_FRAMES NUMBER_OF_BYTES\r\n\r\nAudio\r\n\r\nID                                       : 2\r\nFormat                                   : AC-3\r\nFormat/Info                              : Audio Coding 3\r\nMode extension                           : CM (complete main)\r\nFormat settings, Endianness              : Big\r\nCodec ID                                 : A_AC3\r\nDuration                                 : 58mn 14s\r\nBit rate mode                            : Constant\r\nBit rate                                 : 192 Kbps\r\nChannel(s)                               : 2 channels\r\nChannel positions                        : Front: L R\r\nSampling rate                            : 48.0 KHz\r\nBit depth                                : 16 bits\r\nCompression mode                         : Lossy\r\nStream size                              : 80.0 MiB (19%)\r\nWriting library                          : Lavc57.24.102 ac3\r\nLanguage                                 : English\r\nDefault                                  : Yes\r\nForced                                   : No\r\nDURATION                                 : 00:58:14.623000000\r\nNUMBER_OF_FRAMES                         : 327613\r\nNUMBER_OF_BYTES                          : 659157356\r\n_STATISTICS_WRITING_APP                  : mkvmerge v8.3.0 ('Over the Horizon') 64bit\r\n_STATISTICS_WRITING_DATE_UTC             : 2016-08-14 00:35:59\r\n_STATISTICS_TAGS                         : BPS DURATION NUMBER_OF_FRAMES NUMBER_OF_BYTES\r\n\r\nMenu\r\n\r\n00:00:00.000                             : :00:00:00.000\r\n00:01:13.615                             : :00:01:13.615\r\n00:10:37.470                             : :00:10:37.470\r\n00:17:13.241                             : :00:17:13.241\r\n00:23:19.148                             : :00:23:19.148\r\n00:25:14.012                             : :00:25:14.012\r\n00:30:01.341                             : :00:30:01.341\r\n00:34:57.470                             : :00:34:57.470\r\n00:41:19.560                             : :00:41:19.560\r\n00:42:24.709                             : :00:42:24.709\r\n00:48:03.506                             : :00:48:03.506\r\n00:54:48.160                             : :00:54:48.160\r\n\r\n__--__--__--__--__--__--__--__--__--__--__--__--__--\r\n\r\n\r\nIMDb: http://www.imdb.com/title/tt2654620\r\n\r\n\r\n__--__--__--__--__--__--__--__--__--__--__--__--__--\r\n\r\n\r\nAfter adding torrent with magnet link,\r\n\r\nplease add this  following trackers list to the torrent for better seeds.\r\n\r\n\r\nudp://tracker.coppersurfer.tk:6969/announce\r\n\r\nudp://tracker.opentrackr.org:1337/announce\r\n \nhttp://tracker.baravik.org:6970/announce\r\n \nhttp://tracker2.wasabii.com.tw:6969/announce\r\n\r\nudp://9.rarbg.me:2710/announce\r\n\r\n\r\n__--__--__--__--__--__--__--__--__--__--__--__--__--\r\n\r\nEnjoy!","torrent":{"xt":"urn:btih:cb2fbd1056403a747f85be2c3e8ba9792d23c52b","amp;dn":"The+Strain+S02+720p+BluRay+HEVC+2CH+x265","amp;tr":["udp%3A%2F%2Ftracker.leechers-paradise.org%3A6969","udp%3A%2F%2Fzer0day.ch%3A1337","udp%3A%2F%2Fopen.demonii.com%3A1337","udp%3A%2F%2Ftracker.coppersurfer.tk%3A6969","udp%3A%2F%2Fexodus.desync.com%3A6969"],"infoHash":"cb2fbd1056403a747f85be2c3e8ba9792d23c52b","infoHashBuffer":{"type":"Buffer","data":[203,47,189,16,86,64,58,116,127,133,190,44,62,139,169,121,45,35,197,43]},"announce":[],"urlList":[]}}